<svg id="Capa_1" enable-background="new 0 0 512 512" viewBox="0 0 512 512" xmlns="http://www.w3.org/2000/svg"><g><path d="m223.962 223.962h64.075v64.076h-64.075z"/><path d="m467 272.591c-19.555 0-36.228 12.541-42.42 30h-29.449v-93.182h29.449c6.192 17.459 22.865 30 42.42 30 24.813 0 45-20.187 45-45s-20.187-45-45-45c-19.555 0-36.228 12.541-42.42 30h-29.449v-47.54c0-8.284-6.716-15-15-15h-67.54v-56.869h80.399c6.192 17.459 22.865 30 42.42 30 24.813 0 45-20.187 45-45s-20.187-45-45-45c-19.555 0-36.228 12.541-42.42 30h-95.399c-8.284 0-15 6.716-15 15v71.869h-53.182v-71.869c0-8.284-6.716-15-15-15h-95.399c-6.192-17.459-22.865-30-42.42-30-24.813 0-45 20.187-45 45s20.187 45 45 45c19.555 0 36.228-12.541 42.42-30h80.399v56.869h-67.54c-8.284 0-15 6.716-15 15v51.934h-29.449c-6.192-17.459-22.865-30-42.42-30-24.813 0-45 20.187-45 45s20.187 45 45 45c19.555 0 36.228-12.541 42.42-30h29.449v93.182h-29.449c-6.192-17.459-22.865-30-42.42-30-24.813 0-45 20.187-45 45s20.187 45 45 45c19.555 0 36.228-12.541 42.42-30h29.449v43.146c0 8.284 6.716 15 15 15h67.54v56.869h-80.399c-6.192-17.459-22.865-30-42.42-30-24.813 0-45 20.187-45 45s20.187 45 45 45c19.555 0 36.228-12.541 42.42-30h95.399c8.284 0 15-6.716 15-15v-71.869h53.182v71.869c0 8.284 6.716 15 15 15h95.399c6.192 17.459 22.865 30 42.42 30 24.813 0 45-20.187 45-45s-20.187-45-45-45c-19.555 0-36.228 12.541-42.42 30h-80.399v-56.869h67.54c8.284 0 15-6.716 15-15v-47.54h29.449c6.192 17.459 22.865 30 42.42 30 24.813 0 45-20.187 45-45s-20.187-45-45-45zm-273.038-63.629c0-8.284 6.716-15 15-15h94.075c8.284 0 15 6.716 15 15v94.076c0 8.284-6.716 15-15 15h-94.075c-8.284 0-15-6.716-15-15z"/></g></svg>