<?xml version="1.0" encoding="utf-8"?>
<!-- Generator: Adobe Illustrator 28.2.0, SVG Export Plug-In . SVG Version: 6.00 Build 0)  -->
<svg version="1.1" id="Layer_1" xmlns="http://www.w3.org/2000/svg" xmlns:xlink="http://www.w3.org/1999/xlink" x="0px" y="0px"
	 viewBox="0 0 512 512" style="enable-background:new 0 0 512 512;" xml:space="preserve">
<path d="M305.4,21.8c-1.3-10.4-9.1-18.8-19.5-20C276.1,0.6,266.1,0,256,0c-11.1,0-22.1,0.7-32.8,2.1c-10.3,1.3-18,9.7-19.3,20
	L201,45.2c-0.8,6.4-5.4,11.6-11.5,13.7c-9.6,3.2-19,7.2-27.9,11.7c-5.8,3-12.8,2.5-18-1.5l-18-14c-8.2-6.4-19.7-6.8-27.9-0.4
	c-16.6,13-31.5,28-44.4,44.7c-6.3,8.2-5.9,19.6,0.5,27.8L68,145.5c4,5.1,4.4,12,1.5,17.8c-4.4,8.8-8.2,17.9-11.3,27.4
	c-2,6.2-7.3,10.8-13.7,11.6l-22.8,2.9c-10.3,1.3-18.7,9.1-20,19.4C0.7,234.8,0,245.3,0,256c0,10.6,0.6,21.1,1.9,31.4
	s9.7,18.1,20,19.4l22.8,2.9c6.4,0.8,11.7,5.4,13.7,11.6c3.1,9.5,6.9,18.7,11.3,27.5c2.9,5.8,2.4,12.7-1.5,17.8L54,384.8
	c-6.4,8.2-6.8,19.6-0.5,27.8c12.9,16.7,27.8,31.7,44.4,44.7c8.2,6.4,19.7,6,27.9-0.4l18-14c5.1-4,12.2-4.4,18-1.5
	c9,4.6,18.3,8.5,27.9,11.7c6.1,2.1,10.7,7.3,11.5,13.7l2.9,23.1c1.3,10.3,9,18.7,19.3,20c10.7,1.4,21.7,2.1,32.8,2.1
	c10.1,0,20.1-0.6,29.9-1.7c10.4-1.2,18.2-9.7,19.5-20l2.8-22.5c0.8-6.5,5.5-11.8,11.7-13.8c10-3.2,19.7-7.2,29-11.8
	c5.8-2.9,12.7-2.4,17.8,1.5l18.1,14.2c8.2,6.4,19.6,6.8,27.8,0.5c2.8-2.2,5.5-4.4,8.2-6.7l30.7-30.7c1.8-2.2,3.6-4.4,5.4-6.6
	c6.5-8.2,6-19.7-0.4-27.9l-14-17.9c-4-5.1-4.4-12.2-1.5-18c4.8-9.4,9-19.3,12.3-29.5c2-6.2,7.3-10.8,13.7-11.6l22.8-2.8
	c10.3-1.3,18.8-9.1,20-19.4c0.2-1.7,0.4-3.5,0.6-5.2v-51.9c-0.2-1.7-0.4-3.5-0.6-5.2c-1.3-10.3-9.7-18.1-20-19.4l-22.8-2.8
	c-6.4-0.8-11.7-5.4-13.7-11.6c-3.4-10.2-7.5-20.1-12.3-29.5c-3-5.8-2.5-12.8,1.5-18l14-17.9c6.4-8.2,6.8-19.7,0.4-27.9
	c-1.8-2.2-3.6-4.4-5.4-6.6l-30.7-31c-2.7-2.3-5.4-4.5-8.2-6.7c-8.2-6.4-19.6-5.9-27.8,0.5l-18.3,14.2c-5.1,4-12.1,4.4-17.8,1.5
	c-9.3-4.6-19-8.6-29-11.8c-6.2-2-10.9-7.3-11.7-13.7L305.4,21.8L305.4,21.8z M256,123.9c73,0,132.1,59.1,132.1,132.1
	S329,388.1,256,388.1S123.9,329,123.9,256S183,123.9,256,123.9z"/>
</svg>
