<?xml version="1.0" encoding="utf-8"?>
<!-- Generator: Adobe Illustrator 28.2.0, SVG Export Plug-In . SVG Version: 6.00 Build 0)  -->
<svg version="1.1" id="Layer_1" xmlns="http://www.w3.org/2000/svg" xmlns:xlink="http://www.w3.org/1999/xlink" x="0px" y="0px"
	 viewBox="0 0 122.9 122.9" style="enable-background:new 0 0 122.9 122.9;" xml:space="preserve">
<path d="M122.9,61.4c0,33.9-27.5,61.5-61.4,61.5C27.5,122.9,0,95.4,0,61.5S27.5,0,61.4,0c16.3,0,31.9,6.5,43.5,18
	C116.4,29.5,122.9,45.1,122.9,61.4z M96.3,96.3c19.3-19.3,19.3-50.5,0-69.7s-50.5-19.3-69.7,0S7.3,77,26.6,96.3
	c9.2,9.2,21.8,14.4,34.9,14.4C74.5,110.7,87.1,105.5,96.3,96.3z"/>
<g>
	<path d="M50,23H73c2.9,0,6.9,2.8,5.3,6.1L67.5,51.4c0.1,0-0.7,1.1-1.8,0.6c-2.6-1.1-5.6-1.2-8.3-0.1c0,0.1-1.3,0.4-1.8-0.7
		l-11-22.2C43,25.9,47,23,50,23z M61.5,54.8c3.9,0,7,3.1,7,6.9c0,3.9-3.1,7-7,7c-3.8,0-6.9-3.1-6.9-7C54.6,57.8,57.7,54.8,61.5,54.8
		z M33.7,91l-11.5-20c-1.5-2.5-1.1-7.4,2.6-7.7l24.4-1.6c0.3-0.1,0.5-0.1,0.7-0.1c0.5,0.1,1,0.5,1.1,1.1c1,4.5,1.1,4.3,4.3,7.5
		c0.3,0.4,0.5,0.9,0.3,1.4c-0.1,0.2-0.3,0.5-0.4,0.7L41.7,92.6C39.7,95.6,35.3,93.6,33.7,91z M87.3,93.1c-1.8,1.2-4.5,1.6-6-0.5
		L67.6,72.2c-0.1-0.2-0.3-0.4-0.3-0.6c-0.1-0.6,0.1-1.2,0.5-1.5c2.2-1.4,3.9-4.5,4.2-7.2c-0.1-0.6,0.8-1.2,1.4-1.1l24.8,1.5
		c2.5,0.2,3.5,2.7,3.4,4.9C101.5,69.9,91.4,90.3,87.3,93.1z"/>
</g>
</svg>
