<?xml version="1.0" encoding="UTF-8" standalone="no"?>
<svg xmlns="http://www.w3.org/2000/svg" width="256" height="256.00003" version="1.0">
<path d="M -675.85042,692.06247 C -746.50698,692.06247 -803.84374,749.41269 -803.8437,820.06922 C -803.8437,890.72575 -746.50698,948.0625 -675.85042,948.0625 C -605.1939,948.0625 -547.8437,890.72577 -547.8437,820.06922 C -547.8437,749.41268 -605.1939,692.06249 -675.85042,692.06247 z M -677.07545,715.10881 C -618.79275,715.10881 -571.48234,762.41923 -571.48234,820.70192 C -571.48234,837.62198 -574.37752,852.46735 -581.44395,866.48496 C -590.68528,851.14069 -602.72856,832.08702 -612.12301,815.81534 C -638.63521,815.62572 -696.19994,815.10187 -719.27768,815.10187 C -719.27768,841.73112 -718.90075,870.81307 -718.90075,892.00823 C -728.32704,891.86994 -744.87839,892.21966 -754.29142,892.14284 C -772.16909,873.22612 -781.74197,847.4042 -781.59163,819.34229 C -781.2891,762.57227 -735.35815,715.10881 -677.07545,715.10881 z" transform="translate(803.844, -692.062)"/>
</svg>