<?xml version="1.0" encoding="UTF-8"?>
<svg id="Layer_1" data-name="Layer 1" xmlns="http://www.w3.org/2000/svg" viewBox="0 0 422.67 254.14">
  <defs>
    <style>
      .cls-1 {
        stroke-width: 0px;
      }

      .cls-1, .cls-2, .cls-3 {
        fill: #272525;
      }

      .cls-4 {
        letter-spacing: .07em;
      }

      .cls-5 {
        letter-spacing: .11em;
      }

      .cls-2 {
        font-size: 17.19px;
      }

      .cls-2, .cls-3 {
        font-family: Arial-BoldMT, Arial;
        font-weight: 700;
      }

      .cls-3 {
        font-size: 35.2px;
      }

      .cls-6 {
        letter-spacing: .03em;
      }

      .cls-7 {
        letter-spacing: .09em;
      }

      .cls-8 {
        letter-spacing: .07em;
      }
    </style>
  </defs>
  <g>
    <path class="cls-1" d="M157.48,163h10.07c1.99,0,3.48.08,4.46.25.98.17,1.86.51,2.63,1.04.77.53,1.42,1.23,1.93,2.1s.77,1.86.77,2.95c0,1.18-.32,2.26-.95,3.25-.64.99-1.5,1.72-2.59,2.22,1.54.45,2.72,1.21,3.54,2.29.82,1.08,1.24,2.34,1.24,3.8,0,1.15-.27,2.26-.8,3.34-.53,1.08-1.26,1.95-2.18,2.6-.92.65-2.06,1.05-3.41,1.19-.85.09-2.89.15-6.14.17h-8.58v-25.19ZM162.57,167.19v5.83h3.33c1.98,0,3.21-.03,3.7-.09.87-.1,1.56-.4,2.05-.9.5-.5.75-1.15.75-1.97s-.21-1.41-.64-1.9c-.43-.49-1.07-.78-1.92-.89-.5-.06-1.95-.09-4.35-.09h-2.92ZM162.57,177.21v6.74h4.71c1.83,0,3-.05,3.49-.15.76-.14,1.37-.47,1.85-1.01.48-.53.71-1.25.71-2.14,0-.76-.18-1.4-.55-1.92-.37-.53-.9-.91-1.59-1.15-.69-.24-2.2-.36-4.51-.36h-4.11Z"/>
    <path class="cls-1" d="M186.72,188.2v-24.99h5.09v20.74h12.65v4.25h-17.74Z"/>
    <path class="cls-1" d="M234.49,188.2h-5.53l-2.2-5.72h-10.07l-2.08,5.72h-5.4l9.81-25.19h5.38l10.09,25.19ZM225.13,178.23l-3.47-9.35-3.4,9.35h6.87Z"/>
    <path class="cls-1" d="M257.01,178.93l4.93,1.56c-.76,2.75-2.01,4.79-3.77,6.13-1.76,1.34-3.99,2-6.69,2-3.35,0-6.1-1.14-8.25-3.43-2.15-2.29-3.23-5.41-3.23-9.38,0-4.19,1.08-7.45,3.25-9.77,2.17-2.32,5.01-3.48,8.54-3.48,3.08,0,5.58.91,7.51,2.73,1.15,1.08,2,2.62,2.58,4.64l-5.04,1.2c-.3-1.31-.92-2.34-1.87-3.09-.95-.76-2.09-1.13-3.45-1.13-1.87,0-3.38.67-4.55,2.01-1.16,1.34-1.74,3.51-1.74,6.51,0,3.19.57,5.45,1.72,6.81,1.15,1.35,2.63,2.03,4.47,2.03,1.35,0,2.51-.43,3.49-1.29.97-.86,1.67-2.21,2.1-4.06Z"/>
    <path class="cls-1" d="M270.07,188.2v-25.19h5.09v11.19l10.28-11.19h6.84l-9.49,9.81,10,15.38h-6.58l-6.93-11.82-4.12,4.21v7.61h-5.09Z"/>
    <path class="cls-1" d="M312.52,188.2v-25.19h7.61l4.57,17.19,4.52-17.19h7.63v25.19h-4.73v-19.83l-5,19.83h-4.9l-4.98-19.83v19.83h-4.73Z"/>
    <path class="cls-1" d="M345.61,188.2v-25.19h18.68v4.26h-13.59v5.59h12.65v4.25h-12.65v6.86h14.08v4.25h-19.16Z"/>
    <path class="cls-1" d="M371.49,180l4.95-.48c.3,1.66.9,2.88,1.81,3.66.91.78,2.14,1.17,3.69,1.17,1.64,0,2.87-.35,3.7-1.04.83-.69,1.25-1.5,1.25-2.43,0-.6-.17-1.1-.52-1.52-.35-.42-.96-.78-1.83-1.09-.6-.21-1.95-.57-4.07-1.1-2.73-.68-4.64-1.51-5.74-2.49-1.55-1.39-2.32-3.08-2.32-5.07,0-1.28.36-2.48,1.09-3.6.73-1.12,1.78-1.97,3.14-2.55,1.37-.58,3.02-.88,4.96-.88,3.16,0,5.54.69,7.14,2.08,1.6,1.39,2.44,3.24,2.52,5.55l-5.09.22c-.22-1.29-.69-2.23-1.4-2.79-.72-.57-1.79-.85-3.22-.85s-2.63.3-3.47.91c-.54.39-.81.91-.81,1.56,0,.6.25,1.11.76,1.53.64.54,2.2,1.1,4.67,1.68,2.47.58,4.3,1.19,5.49,1.81,1.19.62,2.11,1.48,2.78,2.56.67,1.08,1.01,2.42,1.01,4.01,0,1.44-.4,2.8-1.2,4.06-.8,1.26-1.94,2.2-3.4,2.81-1.47.61-3.29.92-5.48.92-3.18,0-5.63-.74-7.34-2.21-1.71-1.47-2.73-3.62-3.06-6.44Z"/>
    <path class="cls-1" d="M422.67,188.2h-5.53l-2.2-5.72h-10.07l-2.08,5.72h-5.4l9.81-25.19h5.38l10.09,25.19ZM413.3,178.23l-3.47-9.35-3.4,9.35h6.87Z"/>
  </g>
  <g>
    <path class="cls-1" d="M166.97,216.24v-12.3h5.23c1.31,0,2.27.11,2.87.33.6.22,1.07.61,1.43,1.18.36.56.54,1.21.54,1.94,0,.92-.27,1.68-.81,2.29-.54.6-1.35.98-2.43,1.14.54.31.98.66,1.33,1.03.35.37.82,1.04,1.41,2l1.5,2.4h-2.97l-1.8-2.68c-.64-.96-1.07-1.56-1.31-1.81-.23-.25-.48-.42-.75-.51-.26-.09-.68-.14-1.25-.14h-.5v5.14h-2.48ZM169.45,209.14h1.84c1.19,0,1.94-.05,2.23-.15.3-.1.53-.27.7-.52s.25-.55.25-.92c0-.41-.11-.75-.33-1-.22-.25-.53-.41-.94-.48-.2-.03-.81-.04-1.81-.04h-1.94v3.12Z"/>
    <path class="cls-1" d="M180.92,216.24v-12.3h9.12v2.08h-6.64v2.73h6.18v2.07h-6.18v3.35h6.87v2.07h-9.36Z"/>
    <path class="cls-1" d="M193.3,212.23l2.42-.23c.15.81.44,1.41.89,1.79.44.38,1.04.57,1.8.57.8,0,1.4-.17,1.81-.51.41-.34.61-.73.61-1.19,0-.29-.09-.54-.26-.74-.17-.2-.47-.38-.89-.53-.29-.1-.95-.28-1.99-.54-1.33-.33-2.27-.74-2.8-1.22-.76-.68-1.13-1.5-1.13-2.48,0-.63.18-1.21.53-1.76.35-.55.87-.96,1.54-1.25.67-.29,1.48-.43,2.42-.43,1.54,0,2.71.34,3.49,1.02.78.68,1.19,1.58,1.23,2.71l-2.48.11c-.11-.63-.33-1.09-.68-1.36-.35-.28-.87-.42-1.57-.42s-1.29.15-1.69.45c-.26.19-.39.44-.39.76,0,.29.12.54.37.75.31.26,1.07.54,2.28.82,1.21.29,2.1.58,2.68.88.58.3,1.03.72,1.36,1.25.33.53.49,1.18.49,1.96,0,.71-.2,1.37-.59,1.98-.39.62-.95,1.07-1.66,1.37-.72.3-1.61.45-2.68.45-1.56,0-2.75-.36-3.58-1.08-.83-.72-1.33-1.77-1.49-3.14Z"/>
    <path class="cls-1" d="M206.93,216.24v-12.3h9.12v2.08h-6.64v2.73h6.18v2.07h-6.18v3.35h6.87v2.07h-9.36Z"/>
    <path class="cls-1" d="M231.04,216.24h-2.7l-1.07-2.79h-4.92l-1.02,2.79h-2.63l4.79-12.3h2.63l4.93,12.3ZM226.46,211.37l-1.7-4.56-1.66,4.56h3.36Z"/>
    <path class="cls-1" d="M233.91,216.24v-12.3h5.23c1.31,0,2.27.11,2.87.33.6.22,1.07.61,1.43,1.18.36.56.54,1.21.54,1.94,0,.92-.27,1.68-.81,2.29-.54.6-1.35.98-2.43,1.14.54.31.98.66,1.33,1.03.35.37.82,1.04,1.41,2l1.5,2.4h-2.97l-1.8-2.68c-.64-.96-1.07-1.56-1.31-1.81-.24-.25-.48-.42-.75-.51-.26-.09-.68-.14-1.25-.14h-.5v5.14h-2.48ZM236.39,209.14h1.84c1.19,0,1.94-.05,2.23-.15.3-.1.53-.27.7-.52.17-.25.25-.55.25-.92,0-.41-.11-.75-.33-1-.22-.25-.53-.41-.94-.48-.2-.03-.81-.04-1.81-.04h-1.94v3.12Z"/>
    <path class="cls-1" d="M255.73,211.71l2.41.76c-.37,1.34-.98,2.34-1.84,2.99-.86.65-1.95.98-3.27.98-1.63,0-2.98-.56-4.03-1.67-1.05-1.12-1.58-2.64-1.58-4.58,0-2.05.53-3.64,1.59-4.77,1.06-1.13,2.45-1.7,4.17-1.7,1.5,0,2.73.45,3.67,1.33.56.53.98,1.28,1.26,2.27l-2.46.59c-.15-.64-.45-1.14-.91-1.51-.46-.37-1.02-.55-1.68-.55-.91,0-1.65.33-2.22.98-.57.65-.85,1.71-.85,3.18,0,1.56.28,2.66.84,3.32.56.66,1.29.99,2.18.99.66,0,1.23-.21,1.7-.63.48-.42.82-1.08,1.02-1.98Z"/>
    <path class="cls-1" d="M261.82,216.24v-12.3h2.48v4.84h4.87v-4.84h2.48v12.3h-2.48v-5.38h-4.87v5.38h-2.48Z"/>
    <path class="cls-1" d="M282.11,216.24v-12.3h8.43v2.08h-5.95v2.91h5.14v2.08h-5.14v5.23h-2.48Z"/>
    <path class="cls-1" d="M304.28,216.24h-2.7l-1.07-2.79h-4.92l-1.02,2.79h-2.63l4.79-12.3h2.63l4.93,12.3ZM299.71,211.37l-1.7-4.56-1.66,4.56h3.36Z"/>
    <path class="cls-1" d="M315.02,211.71l2.41.76c-.37,1.34-.98,2.34-1.84,2.99-.86.65-1.95.98-3.27.98-1.63,0-2.98-.56-4.03-1.67-1.05-1.12-1.58-2.64-1.58-4.58,0-2.05.53-3.64,1.59-4.77,1.06-1.13,2.45-1.7,4.17-1.7,1.5,0,2.73.45,3.67,1.33.56.53.98,1.28,1.26,2.27l-2.46.59c-.15-.64-.45-1.14-.91-1.51-.46-.37-1.02-.55-1.68-.55-.91,0-1.65.33-2.22.98-.57.65-.85,1.71-.85,3.18,0,1.56.28,2.66.84,3.32.56.66,1.29.99,2.18.99.66,0,1.23-.21,1.7-.63.48-.42.82-1.08,1.02-1.98Z"/>
    <path class="cls-1" d="M321.03,216.24v-12.3h2.48v12.3h-2.48Z"/>
    <path class="cls-1" d="M327.49,216.24v-12.2h2.48v10.13h6.18v2.07h-8.66Z"/>
    <path class="cls-1" d="M339.4,216.24v-12.3h2.48v12.3h-2.48Z"/>
    <path class="cls-1" d="M348.56,216.24v-10.22h-3.65v-2.08h9.78v2.08h-3.64v10.22h-2.48Z"/>
    <path class="cls-1" d="M361.07,216.24v-5.18l-4.51-7.12h2.91l2.89,4.87,2.84-4.87h2.86l-4.52,7.14v5.16h-2.47Z"/>
  </g>
  <text class="cls-3" transform="translate(154.9 30.2)"><tspan class="cls-5" x="0" y="0">BLACK MES</tspan><tspan class="cls-4" x="242.49" y="0">A</tspan></text>
  <text class="cls-2" transform="translate(165.71 58.24)"><tspan class="cls-7" x="0" y="0">RESEARCH </tspan><tspan class="cls-6" x="115.14" y="0">F</tspan><tspan class="cls-7" x="126.23" y="0">ACILIT</tspan><tspan class="cls-8" x="190.88" y="0">Y</tspan></text>
  <path class="cls-1" d="M67.62,118.91C30.27,118.91,0,149.19,0,186.53s30.27,67.62,67.62,67.62,67.62-30.27,67.62-67.62-30.27-67.62-67.62-67.62ZM100.75,184.49h-56.38v40.33h-16.37c-9.58-9.91-15.47-23.41-15.47-38.28,0-30.43,24.67-55.09,55.1-55.09s55.09,24.67,55.09,55.09c0,8.94-2.13,17.38-5.91,24.84l-16.05-26.89Z"/>
</svg>