<?xml version="1.0" encoding="UTF-8"?>
<svg id="Layer_2" data-name="Layer 2" xmlns="http://www.w3.org/2000/svg" viewBox="0 0 564.12 135.23" fill="currentColor">
  
  <g id="Layer_1-2" data-name="Layer 1">
    <g>
      <g>
        <path class="cls-1" d="M157.48,26.96h15.44c3.06,0,5.34.13,6.84.38,1.5.26,2.85.79,4.03,1.59,1.19.81,2.17,1.88,2.97,3.23s1.19,2.85,1.19,4.52c0,1.81-.49,3.47-1.46,4.98-.97,1.51-2.3,2.64-3.97,3.4,2.35.69,4.16,1.85,5.43,3.51,1.26,1.65,1.9,3.59,1.9,5.82,0,1.76-.41,3.47-1.23,5.13-.82,1.66-1.93,2.99-3.35,3.98-1.41.99-3.16,1.6-5.23,1.83-1.3.14-4.44.23-9.41.26h-13.15V26.96ZM165.28,33.39v8.93h5.11c3.04,0,4.93-.04,5.67-.13,1.34-.16,2.38-.62,3.15-1.38.76-.76,1.15-1.77,1.15-3.02s-.33-2.17-.99-2.91c-.66-.75-1.64-1.2-2.94-1.36-.77-.09-3-.13-6.67-.13h-4.48ZM165.28,48.76v10.33h7.22c2.81,0,4.59-.08,5.35-.24,1.16-.21,2.1-.72,2.83-1.54.73-.82,1.09-1.91,1.09-3.28,0-1.16-.28-2.14-.84-2.95-.56-.81-1.37-1.4-2.44-1.77-1.06-.37-3.37-.55-6.92-.55h-6.3Z"/>
        <path class="cls-1" d="M202.31,65.6V27.28h7.8v31.81h19.4v6.51h-27.2Z"/>
        <path class="cls-1" d="M275.57,65.6h-8.49l-3.37-8.78h-15.44l-3.19,8.78h-8.28l15.05-38.63h8.25l15.47,38.63ZM261.21,50.31l-5.32-14.34-5.22,14.34h10.54Z"/>
        <path class="cls-1" d="M310.1,51.39l7.56,2.4c-1.16,4.22-3.09,7.35-5.78,9.39-2.7,2.05-6.12,3.07-10.27,3.07-5.13,0-9.35-1.75-12.65-5.26-3.3-3.5-4.96-8.3-4.96-14.38,0-6.43,1.66-11.42,4.98-14.98,3.32-3.56,7.69-5.34,13.1-5.34,4.73,0,8.56,1.4,11.52,4.19,1.76,1.65,3.07,4.02,3.95,7.12l-7.72,1.84c-.46-2-1.41-3.58-2.86-4.74-1.45-1.16-3.21-1.74-5.28-1.74-2.86,0-5.19,1.03-6.97,3.08-1.78,2.06-2.67,5.39-2.67,9.99,0,4.88.88,8.36,2.64,10.44,1.76,2.07,4.04,3.11,6.85,3.11,2.07,0,3.86-.66,5.35-1.98,1.49-1.32,2.57-3.39,3.22-6.22Z"/>
        <path class="cls-1" d="M330.13,65.6V26.96h7.8v17.16l15.76-17.16h10.49l-14.55,15.05,15.34,23.59h-10.09l-10.62-18.13-6.32,6.46v11.67h-7.8Z"/>
        <path class="cls-1" d="M395.22,65.6V26.96h11.67l7.01,26.35,6.93-26.35h11.7v38.63h-7.25v-30.41l-7.67,30.41h-7.51l-7.64-30.41v30.41h-7.25Z"/>
        <path class="cls-1" d="M445.95,65.6V26.96h28.65v6.54h-20.85v8.56h19.4v6.51h-19.4v10.51h21.58v6.51h-29.38Z"/>
        <path class="cls-1" d="M485.64,53.03l7.59-.74c.46,2.55,1.38,4.42,2.78,5.61,1.4,1.19,3.28,1.79,5.65,1.79,2.51,0,4.41-.53,5.68-1.59,1.27-1.06,1.91-2.31,1.91-3.73,0-.91-.27-1.69-.8-2.33-.54-.64-1.47-1.2-2.81-1.67-.91-.32-3-.88-6.25-1.69-4.18-1.04-7.12-2.31-8.8-3.82-2.37-2.13-3.56-4.72-3.56-7.77,0-1.97.56-3.81,1.67-5.52,1.11-1.71,2.72-3.02,4.82-3.91,2.1-.9,4.63-1.34,7.6-1.34,4.85,0,8.5,1.06,10.95,3.19,2.45,2.13,3.74,4.96,3.86,8.51l-7.8.34c-.33-1.99-1.05-3.41-2.15-4.28-1.1-.87-2.74-1.3-4.94-1.3s-4.04.47-5.32,1.4c-.83.6-1.24,1.4-1.24,2.4,0,.91.39,1.7,1.16,2.35.98.83,3.37,1.69,7.17,2.58,3.79.9,6.6,1.82,8.42,2.78,1.82.96,3.24,2.27,4.27,3.93,1.03,1.66,1.54,3.71,1.54,6.15,0,2.21-.62,4.29-1.84,6.22-1.23,1.93-2.97,3.37-5.22,4.31-2.25.94-5.05,1.41-8.41,1.41-4.88,0-8.63-1.13-11.25-3.39-2.62-2.26-4.18-5.55-4.69-9.87Z"/>
        <path class="cls-1" d="M564.12,65.6h-8.49l-3.37-8.78h-15.44l-3.19,8.78h-8.27l15.05-38.63h8.25l15.47,38.63ZM549.76,50.31l-5.32-14.34-5.22,14.34h10.54Z"/>
      </g>
      <g>
        <path class="cls-1" d="M172.03,108.59v-18.86h8.02c2.02,0,3.48.17,4.39.51.91.34,1.64.94,2.19,1.81.55.87.82,1.86.82,2.97,0,1.42-.42,2.58-1.25,3.51-.83.92-2.08,1.5-3.73,1.74.82.48,1.5,1.01,2.04,1.58.54.58,1.26,1.6,2.17,3.06l2.3,3.68h-4.55l-2.75-4.1c-.98-1.47-1.65-2.39-2.01-2.77-.36-.38-.74-.64-1.15-.78-.4-.14-1.04-.21-1.92-.21h-.77v7.88h-3.81ZM175.84,97.71h2.82c1.83,0,2.97-.08,3.42-.23.45-.15.81-.42,1.07-.8s.39-.85.39-1.42c0-.63-.17-1.15-.51-1.54-.34-.39-.82-.64-1.43-.74-.31-.04-1.24-.06-2.78-.06h-2.97v4.79Z"/>
        <path class="cls-1" d="M193.42,108.59v-18.86h13.99v3.19h-10.18v4.18h9.47v3.18h-9.47v5.13h10.54v3.18h-14.35Z"/>
        <path class="cls-1" d="M212.4,102.46l3.71-.36c.22,1.24.68,2.16,1.36,2.74.68.58,1.6.87,2.76.87,1.23,0,2.15-.26,2.77-.78.62-.52.93-1.12.93-1.82,0-.45-.13-.83-.39-1.14-.26-.31-.72-.59-1.37-.82-.45-.15-1.46-.43-3.05-.82-2.04-.5-3.48-1.13-4.3-1.86-1.16-1.04-1.74-2.3-1.74-3.8,0-.96.27-1.86.82-2.7.54-.84,1.33-1.47,2.35-1.91,1.02-.44,2.26-.66,3.71-.66,2.37,0,4.15.52,5.35,1.56,1.2,1.04,1.83,2.42,1.89,4.16l-3.81.17c-.16-.97-.51-1.67-1.05-2.09-.54-.43-1.34-.64-2.41-.64s-1.97.23-2.6.68c-.4.29-.61.68-.61,1.17,0,.45.19.83.57,1.15.48.4,1.65.82,3.5,1.26,1.85.44,3.22.89,4.11,1.36.89.47,1.58,1.11,2.08,1.92.5.81.75,1.81.75,3,0,1.08-.3,2.09-.9,3.04-.6.94-1.45,1.64-2.55,2.1-1.1.46-2.47.69-4.1.69-2.38,0-4.22-.55-5.49-1.65-1.28-1.1-2.04-2.71-2.29-4.82Z"/>
        <path class="cls-1" d="M233.31,108.59v-18.86h13.99v3.19h-10.18v4.18h9.47v3.18h-9.47v5.13h10.54v3.18h-14.35Z"/>
        <path class="cls-1" d="M270.27,108.59h-4.14l-1.65-4.28h-7.54l-1.56,4.28h-4.04l7.35-18.86h4.03l7.55,18.86ZM263.26,101.13l-2.6-7-2.55,7h5.15Z"/>
        <path class="cls-1" d="M274.68,108.59v-18.86h8.02c2.02,0,3.48.17,4.4.51.91.34,1.64.94,2.19,1.81.55.87.82,1.86.82,2.97,0,1.42-.42,2.58-1.25,3.51-.83.92-2.08,1.5-3.73,1.74.82.48,1.5,1.01,2.04,1.58.54.58,1.26,1.6,2.17,3.06l2.3,3.68h-4.56l-2.75-4.1c-.98-1.47-1.65-2.39-2.01-2.77-.36-.38-.74-.64-1.15-.78-.4-.14-1.04-.21-1.92-.21h-.77v7.88h-3.81ZM278.48,97.71h2.82c1.83,0,2.97-.08,3.42-.23.45-.15.81-.42,1.07-.8.26-.38.39-.85.39-1.42,0-.63-.17-1.15-.51-1.54-.34-.39-.82-.64-1.43-.74-.31-.04-1.24-.06-2.78-.06h-2.97v4.79Z"/>
        <path class="cls-1" d="M308.14,101.66l3.69,1.17c-.57,2.06-1.51,3.59-2.82,4.59-1.32,1-2.99,1.5-5.01,1.5-2.5,0-4.56-.86-6.18-2.57-1.61-1.71-2.42-4.05-2.42-7.02,0-3.14.81-5.58,2.43-7.32,1.62-1.74,3.75-2.61,6.39-2.61,2.31,0,4.18.68,5.62,2.05.86.81,1.5,1.96,1.93,3.48l-3.77.9c-.22-.98-.69-1.75-1.4-2.32-.71-.57-1.57-.85-2.58-.85-1.4,0-2.53.5-3.4,1.51-.87,1-1.31,2.63-1.31,4.88,0,2.39.43,4.08,1.29,5.1.86,1.01,1.97,1.52,3.35,1.52,1.01,0,1.88-.32,2.61-.97.73-.64,1.25-1.65,1.57-3.04Z"/>
        <path class="cls-1" d="M317.48,108.59v-18.86h3.81v7.42h7.46v-7.42h3.81v18.86h-3.81v-8.25h-7.46v8.25h-3.81Z"/>
        <path class="cls-1" d="M348.59,108.59v-18.86h12.93v3.19h-9.12v4.47h7.88v3.19h-7.88v8.02h-3.81Z"/>
        <path class="cls-1" d="M382.59,108.59h-4.14l-1.65-4.28h-7.54l-1.56,4.28h-4.04l7.35-18.86h4.03l7.55,18.86ZM375.58,101.13l-2.6-7-2.55,7h5.15Z"/>
        <path class="cls-1" d="M399.05,101.66l3.69,1.17c-.57,2.06-1.51,3.59-2.82,4.59-1.32,1-2.99,1.5-5.01,1.5-2.5,0-4.56-.86-6.18-2.57-1.61-1.71-2.42-4.05-2.42-7.02,0-3.14.81-5.58,2.43-7.32,1.62-1.74,3.75-2.61,6.39-2.61,2.31,0,4.18.68,5.62,2.05.86.81,1.5,1.96,1.93,3.48l-3.77.9c-.22-.98-.69-1.75-1.4-2.32-.71-.57-1.57-.85-2.58-.85-1.4,0-2.53.5-3.4,1.51-.87,1-1.31,2.63-1.31,4.88,0,2.39.43,4.08,1.29,5.1.86,1.01,1.97,1.52,3.35,1.52,1.01,0,1.88-.32,2.61-.97.73-.64,1.25-1.65,1.57-3.04Z"/>
        <path class="cls-1" d="M408.27,108.59v-18.86h3.81v18.86h-3.81Z"/>
        <path class="cls-1" d="M418.18,108.59v-18.71h3.81v15.53h9.47v3.18h-13.28Z"/>
        <path class="cls-1" d="M436.43,108.59v-18.86h3.81v18.86h-3.81Z"/>
        <path class="cls-1" d="M450.49,108.59v-15.67h-5.6v-3.19h14.99v3.19h-5.59v15.67h-3.81Z"/>
        <path class="cls-1" d="M469.66,108.59v-7.94l-6.91-10.92h4.47l4.44,7.46,4.35-7.46h4.39l-6.94,10.95v7.91h-3.79Z"/>
      </g>
    </g>
    <path class="cls-1" d="M67.62,0C30.27,0,0,30.27,0,67.62s30.27,67.62,67.62,67.62,67.62-30.27,67.62-67.62S104.96,0,67.62,0ZM100.75,65.57h-56.38v40.33h-16.37c-9.58-9.91-15.47-23.41-15.47-38.28,0-30.43,24.67-55.09,55.1-55.09s55.09,24.67,55.09,55.09c0,8.94-2.13,17.38-5.91,24.84l-16.05-26.89Z"/>
  </g>
</svg>