<?xml version="1.0" encoding="UTF-8"?>
<svg id="Layer_2" data-name="Layer 2" xmlns="http://www.w3.org/2000/svg" viewBox="0 0 727.25 135.24" fill="currentColor">
  <g id="Layer_2-2" data-name="Layer 2">
    <g id="Layer_1-2" data-name="Layer 1-2">
      <g>
        <path class="cls-1" d="M172.73,41.25h21.05c4.17,0,7.28.18,9.33.52,2.05.35,3.89,1.08,5.5,2.17,1.62,1.1,2.96,2.56,4.05,4.4s1.62,3.89,1.62,6.16c0,2.47-.67,4.73-1.99,6.79s-3.14,3.6-5.41,4.64c3.2.94,5.67,2.52,7.4,4.79,1.72,2.25,2.59,4.9,2.59,7.94,0,2.4-.56,4.73-1.68,7-1.12,2.26-2.63,4.08-4.57,5.43-1.92,1.35-4.31,2.18-7.13,2.5-1.77.19-6.05.31-12.83.35h-17.93v-52.68h0ZM183.37,50.02v12.18h6.97c4.15,0,6.72-.05,7.73-.18,1.83-.22,3.25-.85,4.3-1.88,1.04-1.04,1.57-2.41,1.57-4.12s-.45-2.96-1.35-3.97c-.9-1.02-2.24-1.64-4.01-1.85-1.05-.12-4.09-.18-9.1-.18h-6.11,0ZM183.37,70.97v14.09h9.85c3.83,0,6.26-.11,7.3-.33,1.58-.29,2.86-.98,3.86-2.1s1.49-2.6,1.49-4.47c0-1.58-.38-2.92-1.15-4.02s-1.87-1.91-3.33-2.41c-1.45-.5-4.6-.75-9.44-.75h-8.59.01Z"/>
        <path class="cls-1" d="M233.87,93.94v-52.25h10.64v43.38h26.45v8.88h-37.09Z"/>
        <path class="cls-1" d="M333.77,93.94h-11.58l-4.6-11.97h-21.05l-4.35,11.97h-11.29l20.52-52.68h11.25l21.1,52.68h0ZM314.18,73.09l-7.25-19.55-7.12,19.55h14.37Z"/>
        <path class="cls-1" d="M380.85,74.56l10.31,3.27c-1.58,5.75-4.21,10.02-7.88,12.8-3.68,2.8-8.35,4.19-14,4.19-7,0-12.75-2.39-17.25-7.17-4.5-4.77-6.76-11.32-6.76-19.61,0-8.77,2.26-15.57,6.79-20.43,4.53-4.85,10.49-7.28,17.86-7.28,6.45,0,11.67,1.91,15.71,5.71,2.4,2.25,4.19,5.48,5.39,9.71l-10.53,2.51c-.63-2.73-1.92-4.88-3.9-6.46-1.98-1.58-4.38-2.37-7.2-2.37-3.9,0-7.08,1.4-9.5,4.2-2.43,2.81-3.64,7.35-3.64,13.62,0,6.65,1.2,11.4,3.6,14.24,2.4,2.82,5.51,4.24,9.34,4.24,2.82,0,5.26-.9,7.3-2.7,2.03-1.8,3.5-4.62,4.39-8.48h-.01Z"/>
        <path class="cls-1" d="M408.17,93.94v-52.69h10.64v23.4l21.49-23.4h14.3l-19.84,20.52,20.92,32.17h-13.76l-14.48-24.72-8.62,8.81v15.91h-10.65Z"/>
        <path class="cls-1" d="M496.92,93.94v-52.69h15.91l9.56,35.93,9.45-35.93h15.95v52.68h-9.89v-41.47l-10.46,41.47h-10.24l-10.42-41.47v41.47h-9.89.01Z"/>
        <path class="cls-1" d="M566.1,93.94v-52.69h39.07v8.92h-28.43v11.67h26.45v8.88h-26.45v14.33h29.43v8.88h-40.06,0Z"/>
        <path class="cls-1" d="M620.22,76.8l10.35-1.01c.63,3.48,1.88,6.03,3.79,7.65s4.47,2.44,7.7,2.44c3.42,0,6.01-.72,7.75-2.17s2.6-3.15,2.6-5.09c0-1.24-.37-2.3-1.09-3.18-.74-.87-2-1.64-3.83-2.28-1.24-.44-4.09-1.2-8.52-2.3-5.7-1.42-9.71-3.15-12-5.21-3.23-2.9-4.85-6.44-4.85-10.6,0-2.69.76-5.2,2.28-7.53,1.51-2.33,3.71-4.12,6.57-5.33,2.86-1.23,6.31-1.83,10.36-1.83,6.61,0,11.59,1.45,14.93,4.35,3.34,2.9,5.1,6.76,5.26,11.6l-10.64.46c-.45-2.71-1.43-4.65-2.93-5.84s-3.74-1.77-6.74-1.77-5.51.64-7.25,1.91c-1.13.82-1.69,1.91-1.69,3.27,0,1.24.53,2.32,1.58,3.2,1.34,1.13,4.6,2.3,9.78,3.52,5.17,1.23,9,2.48,11.48,3.79s4.42,3.1,5.82,5.36,2.1,5.06,2.1,8.39c0,3.01-.85,5.85-2.51,8.48-1.68,2.63-4.05,4.6-7.12,5.88-3.07,1.28-6.89,1.92-11.47,1.92-6.65,0-11.77-1.54-15.34-4.62-3.57-3.08-5.7-7.57-6.4-13.46v-.03Z"/>
        <path class="cls-1" d="M727.24,93.94h-11.58l-4.6-11.97h-21.05l-4.35,11.97h-11.28l20.52-52.68h11.25l21.1,52.68h-.01ZM707.66,73.09l-7.25-19.55-7.12,19.55h14.37Z"/>
      </g>
      <path class="cls-1" d="M67.62,0C30.27,0,0,30.27,0,67.62s30.27,67.62,67.62,67.62,67.62-30.27,67.62-67.62S104.96,0,67.62,0ZM100.75,65.57h-56.38v40.33h-16.37c-9.58-9.91-15.47-23.41-15.47-38.28,0-30.43,24.67-55.09,55.1-55.09s55.09,24.67,55.09,55.09c0,8.94-2.13,17.38-5.91,24.84l-16.05-26.89h0Z"/>
    </g>
  </g>
</svg>